<?xml version="1.0" encoding="utf-8"?>
<!-- Generator: Adobe Illustrator 15.0.0, SVG Export Plug-In . SVG Version: 6.00 Build 0)  -->
<!DOCTYPE svg PUBLIC "-//W3C//DTD SVG 1.1//EN" "http://www.w3.org/Graphics/SVG/1.1/DTD/svg11.dtd">
<svg version="1.1" id="Layer_1" xmlns="http://www.w3.org/2000/svg" xmlns:xlink="http://www.w3.org/1999/xlink" x="0px" y="0px"
	 width="568.789px" height="474.553px" viewBox="0 0 568.789 474.553" enable-background="new 0 0 568.789 474.553"
	 xml:space="preserve">
<path fill="#ED1968" d="M452.608,230.914c0.054-2.002,0.153-3.995,0.153-6.018c0-120.55-97.725-218.282-218.286-218.282
	c-120.548,0-218.277,97.731-218.277,218.282c0,120.557,97.729,218.281,218.277,218.281c39.862,0,77.192-10.732,109.342-29.382
	c21.14,31.159,56.844,51.64,97.328,51.64c64.924,0,117.538-52.632,117.538-117.538C558.684,286.852,512.148,236.679,452.608,230.914
	z"/>
<path fill="#FFFFFF" d="M88.5,204.271v31.341c-0.165,12.865-0.663,16.824,9.237,16.824h4.453c0.661-0.162,1.483-0.162,2.146-0.162
	v18.812c-5.607,0.649-11.055,1.146-16.662,1.146c-11.713,0-17.153-3.463-20.121-8.243c-3.141-4.942-3.465-11.048-3.305-22.771
	v-36.947H52.047v-18.479h12.202v-25.233H88.5v25.233h15.009v18.479H88.5z"/>
<path fill="#FFFFFF" d="M194.71,246.502c-0.325,1.154-0.821,3.292-2.146,5.772c-1.641,3.139-6.43,10.723-15.007,15.674
	c-9.564,5.43-20.946,5.772-24.08,5.772c-5.604,0-20.943-0.667-32.329-13.528c-4.286-4.942-10.723-15.331-10.723-31.677
	c0-5.44,0.496-20.123,11.548-32c4.947-5.276,14.516-13.194,32.165-13.194c5.278,0,18.145,0.496,28.703,11.381
	c13.853,14.349,13.023,36.131,12.86,40.91h-59.874c0.167,0.995,0.332,2.81,1.157,5.118c0.494,1.975,2.969,8.414,9.072,11.544
	c1.648,0.667,4.291,1.659,8.412,1.659c7.587,0,11.544-3.318,13.523-5.609c0.99-1.335,2.144-3.139,2.309-3.463L194.71,246.502z
	 M170.137,217.131c-0.165-1.479-0.496-3.292-1.154-4.942c-1.317-3.635-5.443-9.731-15.34-9.731c-3.63,0-11.875,0.659-16.001,10.056
	c-0.821,1.488-0.985,1.984-1.646,4.618H170.137z"/>
<path fill="#FFFFFF" d="M283.292,246.502c0,6.935-0.658,18.479,3.292,24.738h-25.559l-1.154-7.584
	c-8.576,6.592-15.999,10.064-26.893,10.064c-2.137,0-6.43,0-11.706-1.813c-11.381-3.959-17.985-14.023-17.985-25.738
	c0-2.796,0.658-12.531,7.92-18.637c7.26-6.271,18.47-7.758,27.218-9.409l6.926-0.992c5.447-0.983,8.91-1.317,11.219-2.967
	c0.658-0.496,1.976-1.65,1.976-4.121c0-2.309-1.155-3.797-1.813-4.455c-1.65-1.812-5.438-3.463-11.381-3.463
	c-0.821,0-10.227-0.334-13.528,5.609c-1.317,2.137-1.317,4.284-1.317,5.113h-22.438c0.333-3.463,0.829-11.877,7.431-19.137
	c8.081-9.064,19.625-10.389,30.844-10.389c9.893,0,20.292,1.488,28.21,8.414c3.129,2.643,5.771,6.43,6.917,10.39
	c1.821,5.447,1.821,10.561,1.821,21.608V246.502z M259.213,230.337c-5.943,2.471-6.936,2.137-16.829,4.121
	c-0.658,0.163-6.268,1.154-9.731,3.306c-4.293,2.471-4.78,5.447-4.78,7.747c0,0.658,0.163,2.967,1.317,4.779
	c1.316,1.822,4.617,4.293,10.056,4.293c2.48,0,10.561-0.649,16.495-6.259c1.813-1.822,2.976-3.968,3.472-4.789V230.337z"/>
<path fill="#FFFFFF" d="M321.163,197.174c1.66-2.967,4.951-8.901,13.365-11.878c1.479-0.487,5.438-1.479,9.902-1.479
	c3.13,0,13.51,0.496,19.94,8.91c1.821,2.309,2.651,4.617,3.138,5.601c0.992-1.813,1.66-2.634,2.976-4.284
	c2.967-3.625,10.561-10.064,23.087-10.064c3.138,0,6.268,0.334,9.406,1.316c4.293,1.326,14.682,5.447,17.316,18.317
	c1.163,5.6,0.992,10.714,1.163,22.106v45.521h-24.251v-40.407c0-3.301-0.162-6.767-0.162-10.067
	c-0.171-1.984-0.334-4.455-0.83-6.268c-0.82-2.805-3.472-8.586-11.715-8.586c-1.316,0-4.446,0-7.413,2.156
	c-5.285,3.625-5.609,9.722-5.447,20.943v42.229h-24.413v-48.166c-0.162-5.447-0.333-11.219-5.113-14.844
	c-1.154-0.83-3.625-2.318-7.422-2.318c-2.814,0-5.447,0.83-7.584,2.156c-6.268,4.284-5.772,12.031-5.943,25.398v37.774h-24.079
	v-85.448h24.079V197.174z"/>
<path fill="#FFFFFF" d="M422.729,386.163h-23.096v-9.397c-0.992,1.488-1.813,2.48-3.138,3.797
	c-3.121,2.967-10.228,7.756-21.438,7.756c-3.625,0-17.315-0.496-23.926-12.382c-4.275-7.747-4.275-15.666-4.275-32.656v-42.55
	h24.242v39.42c0,13.69-0.658,21.446,5.772,25.901c3.129,1.975,6.439,2.138,7.756,2.138c3.129,0,10.723-1.155,13.194-9.894
	c1.154-3.959,1.154-11.048,1.317-20.941V300.73h23.592V386.163z"/>
<path fill="#FFFFFF" d="M460.273,310.795c0.983-1.326,2.462-3.31,3.788-4.455c3.138-3.129,9.568-7.765,20.454-7.765
	c16.494,0,24.746,10.236,28.038,15.178c7.098,11.381,7.269,26.226,7.269,29.689c0,4.789-0.333,24.918-14.69,37.12
	c-3.301,2.805-10.39,7.756-21.771,7.756c-1.317,0-4.122,0-7.585-0.667c-6.926-1.488-10.064-3.959-14.845-8.901v34.135h-24.25V300.73
	h23.592V310.795z M467.2,364.067c2.958,2.805,6.764,3.959,10.885,3.959c0.83,0,3.454,0,6.097-1.155
	c6.105-2.805,11.048-10.885,11.048-25.071c0-6.105-0.983-12.211-4.608-17.324c-2.967-4.284-6.764-6.097-12.04-6.097
	c-1.984,0-6.097,0.162-10.056,3.292c-4.96,3.634-7.927,9.902-7.756,22.104C460.77,350.874,461.428,358.945,467.2,364.067z"/>
</svg>
